<svg width="30" height="30" viewBox="0 0 536 604" fill="none" xmlns="http://www.w3.org/2000/svg">
<path d="M285.5 20.4241L503.102 146.057C513.931 152.309 520.602 163.863 520.602 176.368V427.632C520.602 440.137 513.931 451.691 503.102 457.943L285.5 583.576C274.671 589.828 261.329 589.828 250.5 583.576L32.8982 457.943C22.0691 451.691 15.3982 440.137 15.3982 427.632V176.368C15.3982 163.863 22.0691 152.309 32.8982 146.057L250.5 20.4241C261.329 14.172 274.671 14.172 285.5 20.4241Z" stroke="black" stroke-width="30"/>
<path d="M203.801 229.545V375H173.972L116.088 291.051H115.165V375H80.0085V229.545H110.264L167.509 313.352H168.716V229.545H203.801ZM225.907 375V229.545H325.197V258.097H261.063V287.926H318.876V316.548H261.063V375H225.907ZM338.141 258.097V229.545H461.081V258.097H416.976V375H382.317V258.097H338.141Z" fill="black"/>
</svg>
