<svg width="24" height="24" viewBox="0 0 24 24" fill="none" xmlns="http://www.w3.org/2000/svg">
<path d="M17.5607 21.0002C17.4008 21.0008 17.2431 20.9631 17.1007 20.8902L12.0007 18.2202L6.90074 20.8902C6.73513 20.9773 6.54842 21.0162 6.36182 21.0024C6.17522 20.9887 5.99622 20.9228 5.84517 20.8124C5.69412 20.702 5.57708 20.5514 5.50735 20.3778C5.43763 20.2041 5.41801 20.0144 5.45074 19.8302L6.45074 14.2002L2.33074 10.2002C2.2022 10.0719 2.11101 9.91107 2.06697 9.7349C2.02292 9.55872 2.02768 9.37388 2.08074 9.2002C2.1387 9.02248 2.24532 8.86456 2.38849 8.74436C2.53166 8.62417 2.70566 8.54651 2.89074 8.5202L8.59074 7.6902L11.1007 2.5602C11.1826 2.39113 11.3105 2.24855 11.4697 2.14878C11.6288 2.04901 11.8129 1.99609 12.0007 1.99609C12.1886 1.99609 12.3727 2.04901 12.5318 2.14878C12.691 2.24855 12.8189 2.39113 12.9007 2.5602L15.4407 7.6802L21.1407 8.5102C21.3258 8.53651 21.4998 8.61417 21.643 8.73436C21.7862 8.85456 21.8928 9.01248 21.9507 9.1902C22.0038 9.36388 22.0086 9.54872 21.9645 9.7249C21.9205 9.90107 21.8293 10.0619 21.7007 10.1902L17.5807 14.1902L18.5807 19.8202C18.6164 20.0077 18.5977 20.2015 18.5269 20.3787C18.456 20.5559 18.3359 20.7091 18.1807 20.8202C17.9997 20.9471 17.7816 21.0104 17.5607 21.0002ZM12.0007 16.1002C12.161 16.0962 12.3196 16.1341 12.4607 16.2102L16.2307 18.2102L15.5107 14.0002C15.4828 13.8395 15.4946 13.6743 15.5452 13.5192C15.5957 13.364 15.6835 13.2236 15.8007 13.1102L18.8007 10.1802L14.6007 9.5602C14.4467 9.5292 14.3022 9.46233 14.1788 9.36504C14.0555 9.26775 13.9568 9.14276 13.8907 9.0002L12.0007 5.2502L10.1107 9.0002C10.0384 9.14391 9.93243 9.26803 9.80186 9.36204C9.67129 9.45605 9.51997 9.51717 9.36074 9.5402L5.16074 10.1602L8.16074 13.0902C8.27802 13.2036 8.36576 13.344 8.4163 13.4992C8.46685 13.6543 8.47867 13.8195 8.45074 13.9802L7.73074 18.1402L11.5007 16.1402C11.6605 16.0808 11.8336 16.067 12.0007 16.1002Z" fill="#1877F2"/>
</svg>
